<svg width="100" height="100" viewBox="0 0 100 100" fill="none" xmlns="http://www.w3.org/2000/svg">
<path fill-rule="evenodd" clip-rule="evenodd" d="M52 21.1973C53.7934 20.1599 55 18.2208 55 16C55 12.6863 52.3137 10 49 10C45.6863 10 43 12.6863 43 16C43 18.2208 44.2066 20.1599 46 21.1973V29H24C19.5817 29 16 32.5817 16 37V44H6V62H16V69C16 73.4183 19.5817 77 24 77H41V85H57V77H75C79.4183 77 83 73.4183 83 69V62H94V44H83V37C83 32.5817 79.4183 29 75 29H52V21.1973ZM37 55C41.4183 55 45 51.4183 45 47C45 42.5817 41.4183 39 37 39C32.5817 39 29 42.5817 29 47C29 51.4183 32.5817 55 37 55ZM70 47C70 51.4183 66.4183 55 62 55C57.5817 55 54 51.4183 54 47C54 42.5817 57.5817 39 62 39C66.4183 39 70 42.5817 70 47ZM36 63C33.7909 63 32 64.7909 32 67C32 69.2091 33.7909 71 36 71H62C64.2091 71 66 69.2091 66 67C66 64.7909 64.2091 63 62 63H36Z" fill="white"/>
</svg>
